<svg viewBox="0 0 33 38" fill="none" xmlns="http://www.w3.org/2000/svg"><defs><clipPath id="a"><path fill="#fff" fill-opacity="0" d="M0 0h33v38h-33z"/></clipPath></defs><path d="M0 0h33v38h-33z"/><g clip-path="url(#a)"><path d="M6.01 20.93v-2.28c6.62-.93 13.29-1.38 19.97-1.35 0 .61 0 1.23-.06 1.84 1.9-.86 3.9-1.48 5.95-1.84a16.83 16.83 0 0 0-6.77-8.28 16.3 16.3 0 0 0-19.93 2.07 17 17 0 0 0-4.99 9.51l5.83.33Zm20.96 3.55c-1.15 1.29-1.37 1.21-1.37 3.48v9.28a16.65 16.65 0 0 0 5.42-6.06 17.14 17.14 0 0 0 1.98-7.95c-.02-1.05-.12-2.1-.32-3.13a32.68 32.68 0 0 0-5.71 4.38Zm-20.68 1.5s-3.75-1.45-5.14-1.85a9.18 9.18 0 0 0-1.15-.28 16.93 16.93 0 0 0 8.59 14.15l-2.3-12.02Z" fill="#FDC305"/><path d="M26.03 17.29a92.75 92.75 0 0 0-1.38-16.64s-.14-1.3-.89-.24a14.5 14.5 0 0 0-1.18 3.98 68.56 68.56 0 0 0-12.65.34c-.78-2.71-2.16-3.98-2.82-3.72-.67.25-.72 3.34-.72 3.34l-.32 14.25c6.61-.92 13.29-1.35 19.96-1.31Z" fill="#F06351"/><path d="M12.29 14.14c0-.09.99.69 1.39.93.41.24.61.42.61.6 0 .17-.27.34-.63.34-.35 0-.9-.12-.99-.27h1.22c-.6-.46-1.14-1-1.6-1.6Zm7.4.11-1.08 1.35c0 .06-.16.35.18.3a7.1 7.1 0 0 0 1.21-.29c.11 0 .07-.2-.11-.18-.18.02-.68.05-.99.11l.83-1.27s.07-.13-.04-.02Zm-3.11 6.15c.46-.2.84-.56 1.08-1.01.28-.65 0-.92-.43-1.01a2.4 2.4 0 0 0-1.73.35c-.38.36-.33.72-.04 1.01.34.27.72.49 1.12.66Z" fill="#000"/><path d="M16.19 21.67c-.11.23-.27.43-.46.6-.28.24-.63.37-.99.39a2.06 2.06 0 0 1-1.45-.44c-.2-.12-.38-.27-.53-.44-.1-.11-.22-.2-.36-.26 0 0 .75 4.14 2.55 4.8 1.8.65 2.12-.76 2.18-1.15a5.74 5.74 0 0 0-.81-3.26c-.02-.31-.03-.11-.13-.24Z" fill="#F06351"/><path d="M14.56 22.82c-.46-.07-.9-.23-1.3-.47a3.42 3.42 0 0 1-1.05-1.07l.02-.05c0-.02.01-.03.03-.05l.04-.03.06-.01a.1.1 0 0 1 .05.01l.04.03c.5.7 1.26 1.18 2.09 1.32.33-.03.65-.13.93-.31s.52-.42.69-.7l.14-.2.1.22s.36.76.99.8c.62.04 1.04-.41 1.59-1.29l.05-.03.05-.01.05.01.05.03c.03.02.05.05.06.09.01.04.01.08-.01.11-.64 1.01-1.26 1.46-1.86 1.42a1.5 1.5 0 0 1-.64-.26c-.2-.13-.36-.31-.47-.51a2.25 2.25 0 0 1-1.7.95Z" fill="#000"/><path d="M25.98 19.11a57.94 57.94 0 0 0-5.02 5.25 31.44 31.44 0 0 1-5.24 4.94c-.22-.54-1.6-1.53-1.6-1.53s-3.1-2.16-5.13-3.86a32.83 32.83 0 0 1-3.1-3.03l-1.98-.11a22.38 22.38 0 0 0 11.88 8.89c.85-.14 3.24-1.88 5.02-3.29a58.15 58.15 0 0 0 5.89-5.96c.49-.59.88-1.28 1.13-2.02-1.09.4-1.85.72-1.85.72Z" fill="#F06351"/></g></svg>