<svg viewBox="0 0 101 18" fill="none" xmlns="http://www.w3.org/2000/svg"><defs><clipPath id="a"><path fill="#fff" fill-opacity="0" d="M0 0h101v18h-101z"/></clipPath></defs><path d="M0 0h101v18h-101z"/><g clip-path="url(#a)" fill="#111"><path d="M1.26 16.53a6.78 6.78 0 0 1-1.26-4.3v-6.39a6.9 6.9 0 0 1 1.18-4.38c.87-1 2.21-1.46 4.19-1.46 1.97 0 3.24.46 4.03 1.3a5.45 5.45 0 0 1 1.19 3.77v1.54h-3.88v-1.77a3.85 3.85 0 0 0-.23-1.54 1.1 1.1 0 0 0-.46-.47c-.2-.11-.42-.16-.65-.14-.55 0-.95.15-1.11.54a4.58 4.58 0 0 0-.23 1.69v8.23c-.05.56.06 1.11.31 1.61.16.39.55.54 1.11.54.55 0 .87-.15 1.03-.54a4.2 4.2 0 0 0 .23-1.61v-1.85h3.88v1.54a5.77 5.77 0 0 1-1.19 3.85c-.79.92-2.13 1.38-4.03 1.38-1.9-.07-3.32-.54-4.11-1.54Zm13.99-16.3h4.5l3.32 17.53h-3.63l-.64-3.69h-2.6l-.64 3.69h-3.71l3.4-17.53Zm3.24 11.53-.95-6.84-.95 6.84h1.9Zm7.35-8.61h-2.69v-2.92h9.41v2.84h-2.69v14.69h-4.03v-14.61Zm13.91-2.92h6.95v1.84h-4.5v5.77h3.63v1.77h-3.63v6.46h4.5v1.77h-7.03v-17.61h.08Zm9.01 0h1.74l5.13 11.61v-11.61h2.06v17.53h-1.58l-5.22-12v12h-2.13v-17.53Zm11.3 0h6.95v1.84h-4.5v5.77h3.63v1.77h-3.63v6.46h4.5v1.77h-6.95v-17.61Zm9.01 0h3.63c1.43-.1 2.85.28 4.03 1.07.87.7 1.27 1.93 1.27 3.54 0 2.23-.71 3.62-2.22 4.08l2.53 8.77h-2.45l-2.37-8.23h-1.97v8.23h-2.53v-17.46h.08Zm3.47 7.53c.82.07 1.63-.15 2.3-.61.47-.39.71-1.15.71-2.31a4.87 4.87 0 0 0-.24-1.69 1.94 1.94 0 0 0-.87-.92 3.57 3.57 0 0 0-1.74-.31h-1.1v5.77h.94v.07Zm8.62 8.7a7.64 7.64 0 0 1-1.11-4.46v-5.85a12.3 12.3 0 0 1 .4-3.31c.26-.81.79-1.51 1.5-2 .88-.51 1.9-.75 2.92-.69 1.66 0 2.85.38 3.56 1.23a5.8 5.8 0 0 1 1.11 3.85v.61h-2.38v-.54c.01-.64-.04-1.28-.15-1.92-.07-.4-.3-.76-.64-1a2.46 2.46 0 0 0-1.5-.38 2.37 2.37 0 0 0-1.58.46c-.18.15-.34.34-.44.55-.11.21-.18.44-.19.68-.1.68-.16 1.38-.16 2.07v6.54c-.06 1 .11 2 .48 2.93.31.61.94.84 1.89.84a1.93 1.93 0 0 0 1.9-.92 6.8 6.8 0 0 0 .55-3.08v-1.23h-2.29v-1.77h4.58v8.69h-1.58l-.23-2a3.27 3.27 0 0 1-3.24 2.24 4.1 4.1 0 0 1-3.4-1.54Zm13.51-4.85-3.87-11.31h2.37l2.77 8.46 2.68-8.46h2.38l-3.88 11.31v6.15h-2.37v-6.15h-.08Z"/></g></svg>