<svg viewBox="0 0 60 50" fill="none" xmlns="http://www.w3.org/2000/svg"><path d="M51.2 19.05a22.3 22.3 0 0 0-6.88-9.13 21.6 21.6 0 0 0-30.62 4.02 22.65 22.65 0 0 0 3.73 31.26 21.78 21.78 0 0 0 10.37 4.56c-.5-1.83-1-3.84-1.45-5.98 1.3.86 2.66 1.6 4.07 2.22 0 0 .1 1.89.24 3.99 1.53.03 3.06-.11 4.56-.41a1.83 1.83 0 0 1 0-.66c.25-1.63.93-4.57 1.07-6.47.99-.94 1.82-2.03 2.48-3.23l-.05.38c-.47 3.72-1.46 7.69-2.06 8.79-.19.36-.43.7-.7 1a21.79 21.79 0 0 0 8.5-4.16c2.5-2 4.55-4.53 6-7.41a22.78 22.78 0 0 0 .74-18.77Zm-1.25 3.3c-.38.38-1.16.63-1.29-.5a39.52 39.52 0 0 1-.16-1.93s-1.65-2.99-2.27-3.03c-.61-.03-4.98 3.03-6.14 4.36-1 1.13-1.19 1.05-1.19 3.03 0 1.49.19 7.13.08 11.44l-6.97 1.89a54.46 54.46 0 0 1-6.67 1.5l-.85-5.08h-.12l-2.2-11.49s-3.26-1.26-4.46-1.6a3.23 3.23 0 0 0-1.79-.24c-.6.1-1.17.37-1.63.79a4.46 4.46 0 0 0-1.48 3.36c.18.4.32.83.41 1.26.05.42-1.02.38-1.71.38-.68 0-.78-1.26-.24-2.73.42-1.14.94-2.23 1.55-3.27a10.8 10.8 0 0 1 1.77-2.52s.12-.29 1.07-.21c.95.09 6.23.38 6.23.38l.04-1.98a119.4 119.4 0 0 1 17.31-1.17v1.6a18.7 18.7 0 0 1 6.96-1.75c.13 0 .26.03.37.09a.7.7 0 0 1 .29.25c.29.38 2.06 2.62 2.27 2.94.57.84 1.09 1.71 1.56 2.62a5.55 5.55 0 0 1-.74 1.6v.01Z" fill="#FDC305"/><path d="m48.28 17.01.85 1.13c.58.84 1.1 1.71 1.57 2.62a5.4 5.4 0 0 1-.74 1.55c-.37.37-1.15.63-1.28-.51a43.6 43.6 0 0 1-.18-1.88s-1.65-2.99-2.26-3.03c-.62-.03-4.99 3.03-6.15 4.36-1 1.13-1.19 1.05-1.19 3.03 0 1.31.14 5.8.11 9.8 1.55.17 3.82.61 4.51 1.64 0 0-.25-6.27 6.67-2.99 0 0 .24-8.54 9.81-6.35a37.69 37.69 0 0 0-11.72-9.37Zm-9.01-2.02c.04-4.84-.36-9.66-1.19-14.42 0 0-.13-1.14-.75-.21a12.4 12.4 0 0 0-1.02 3.49 60.01 60.01 0 0 0-10.97.29c-.7-2.39-1.9-3.49-2.47-3.2-.57.29-.64 2.86-.64 2.86l-.28 12.36c5.74-.81 11.53-1.2 17.32-1.17Z" fill="#F06351"/><path d="M38.78 39.22c.11-.94.17-2.18.2-3.55l-6.97 1.9a54.18 54.18 0 0 1-6.67 1.54l.95 4.36c0 .1 0 .2.06.29 1.3.86 2.66 1.6 4.07 2.23a36.32 36.32 0 0 0 5.89-3.61v.06a13.6 13.6 0 0 0 2.47-3.22Z" fill="#E55645"/><path d="M27.36 12.26c-.04-.09.86.59 1.21.8.35.21.52.37.52.52 0 .14-.22.29-.53.29-.31 0-.79-.1-.86-.22-.07-.13.52 0 .81 0h.24c-.52-.4-.99-.86-1.39-1.39Zm6.41.09s-.85 1.12-.93 1.17c-.07.06-.14.3.17.26.35-.06.7-.14 1.04-.25.09-.05.06-.17-.1-.16-.17.02-.59.05-.86.1l.73-1.11s.02-.1-.05-.01Zm-2.68 5.33c.4-.17.72-.48.93-.87.24-.57 0-.79-.37-.87-.52-.1-1.06.01-1.5.3-.33.32-.29.63 0 .87.29.23.6.42.94.57Z" fill="#000"/><path d="M30.78 18.78c-.1.2-.23.38-.39.53-.25.2-.54.31-.86.33-.47.05-.94-.09-1.31-.38a1.77 1.77 0 0 1-.46-.4.93.93 0 0 0-.3-.22s.64 3.59 2.19 4.17c1.56.57 1.85-.67 1.89-1a5.02 5.02 0 0 0-.7-2.83c0-.26-.02-.08-.06-.2Z" fill="#F06351"/><path d="M29.33 19.78c-.4-.06-.79-.2-1.13-.42a2.79 2.79 0 0 1-.88-.83c-.02-.02-.03-.05-.03-.09 0-.03.01-.06.03-.08l.04-.03.04-.01.05.01.04.03c.21.3.48.56.79.75.31.2.65.33 1.01.39a1.8 1.8 0 0 0 1.41-.87l.12-.17.08.19s.33.67.86.7c.53.04.9-.37 1.39-1.12a.16.16 0 0 1 .08-.06c.03 0 .06 0 .09.02s.05.05.05.08c.01.03 0 .07-.01.1-.57.85-1.11 1.26-1.62 1.23a1.37 1.37 0 0 1-.96-.64c-.17.24-.38.43-.63.58-.26.14-.54.22-.82.24Z" fill="#000"/><path d="M34.21 28.25a3.23 3.23 0 0 1-3.21 3.27 3.23 3.23 0 0 1-3.2-3.27 3.23 3.23 0 0 1 3.2-3.27 3.23 3.23 0 0 1 3.21 3.27Z" fill="#FDC305" fill-rule="evenodd"/><path d="m35.25 25.59-2.67 1.14.98-4.91-6.41 8.52 2.67-1.15-.98 4.92 6.41-8.52Zm-6.32 3.34 3.56-4.72-.69 3.49 1.71-.71-3.58 4.72.69-3.49-1.69.71Z" fill="#111"/><path d="M28.7 26.67c0 .54-.43.98-.96.98a.97.97 0 0 1-.96-.98c0-.54.43-.98.96-.98s.96.44.96.98Zm5.29 3.83c0 .38-.3.69-.68.69a.68.68 0 0 1-.67-.69c0-.38.3-.69.67-.69.38 0 .68.31.68.69Zm.44-1.51a.3.3 0 0 1-.3.31.31.31 0 0 1-.3-.31c0-.17.14-.3.3-.3.17 0 .3.13.3.3Z" fill="#111" fill-rule="evenodd"/><path d="M39.23 16.57a50.4 50.4 0 0 0-4.35 4.54 27.86 27.86 0 0 1-4.54 4.28c-.19-.46-1.4-1.33-1.4-1.33s-2.68-1.87-4.44-3.35a26.61 26.61 0 0 1-2.69-2.62l-1.71-.09a19.38 19.38 0 0 0 10.26 7.71c.74-.12 2.81-1.63 4.36-2.86a49.99 49.99 0 0 0 5.13-5.16c.42-.51.75-1.1.97-1.74-.97.33-1.59.62-1.59.62Zm-17.06 5.97s-3.26-1.26-4.46-1.6a3.2 3.2 0 0 0-3.42.55 4.43 4.43 0 0 0-1.48 3.36c.19.4.32.83.41 1.26.05.42-1.02.38-1.71.38-.68 0-.78-1.26-.24-2.73.42-1.14.94-2.23 1.55-3.27-4.66 2.48-12.82 8.21-12.82 8.21 2.33-.15 4.68-.08 7 .2 4.49.47 4.27 4.08 4.27 4.08 1.58-.45 3.19-.77 4.82-.97 1.81-.12 1.94 1.85 1.94 1.85l.45 3.37c.69-.76 1.45-1.45 2.27-2.06a5.16 5.16 0 0 1 3.75-1.14l-2.33-11.49Z" fill="#F06351"/></svg>