<svg viewBox="0 0 26.963 17" fill="none" xmlns="http://www.w3.org/2000/svg"><path d="M0 2.33c0-.85.51-1.31 1.54-1.38l3.97.03c.27 0 .44.12.53.37.41 1.26.87 2.35 1.38 3.26.5.91 1.16 1.97 1.98 3.16.07.15.19.22.35.22.12 0 .22-.06.29-.17l.08-.28.03-4.35c0-.3-.08-.5-.23-.6a1.94 1.94 0 0 0-.84-.23c-.32-.05-.48-.24-.48-.55 0-.07.01-.12.03-.16.37-1.09 1.44-1.63 3.19-1.63l1.5-.02c.67 0 1.23.15 1.68.47.44.32.66.82.66 1.51v5.71c.13.08.24.13.35.13.26 0 .49-.16.69-.46 1.95-2.58 3.01-4.31 3.17-5.18a1.76 1.76 0 0 1 .67-.78c.28-.18.53-.31.74-.37a.47.47 0 0 1 .24-.05h4.13l.27.02c.35 0 .63.16.82.48a1.34 1.34 0 0 1 .2.68l.02.2v.18a6.21 6.21 0 0 1-.95 2.2c-.5.78-1.15 1.62-1.93 2.52-.78.91-1.27 1.5-1.46 1.79-.16.2-.24.38-.24.55 0 .14.07.29.21.45l3.89 4.63c.21.27.32.56.32.88 0 .39-.16.71-.48.96-.32.25-.7.39-1.15.42l-.45.03h-4.05a.6.6 0 0 0-.11.01l-.1.02c-.39 0-.76-.16-1.1-.48l-2.5-2.97a1.34 1.34 0 0 0-.37-.33c-.07.27-.17.66-.28 1.16l-.26 1.08-.08.43c-.17.59-.55.94-1.11 1.05l-.38.03h-2.61c-1.47 0-2.94-.64-4.41-1.91a19.45 19.45 0 0 1-3.95-4.94 46.24 46.24 0 0 1-3.28-7.06 1.86 1.86 0 0 1-.13-.73Zm16.01 6.52c-.38 0-.71-.1-1.01-.29a.89.89 0 0 1-.46-.79v-5.79c0-.33-.09-.57-.26-.71-.18-.15-.49-.22-.94-.22l-1.52.05c-.76 0-1.34.13-1.73.38.78.35 1.18.92 1.18 1.71v4.42c-.04.42-.22.77-.54 1.05a1.6 1.6 0 0 1-1.06.41c-.54 0-.94-.24-1.23-.73a26.33 26.33 0 0 1-3.09-5.63l-.24-.65-3.54-.03c-.23 0-.36.01-.39.04-.03.02-.04.1-.04.21 0 .15.02.31.05.48l.56 1.41c1.5 3.64 3.12 6.5 4.87 8.6 1.75 2.1 3.46 3.14 5.15 3.14h2.67c.1 0 .18-.03.24-.08a.96.96 0 0 0 .13-.34l.05-.26.51-2.21c.14-.3.26-.5.37-.6.2-.19.43-.28.69-.28.43 0 .87.24 1.31.73l2.26 2.72c.15.21.3.32.46.32h4.39c.54 0 .8-.12.8-.37a.4.4 0 0 0-.08-.25l-3.86-4.56c-.3-.35-.45-.73-.45-1.13 0-.4.14-.79.42-1.16.23-.33.68-.89 1.35-1.67a36.7 36.7 0 0 0 1.74-2.19 6 6 0 0 0 .99-1.84l.08-.33a.32.32 0 0 1-.03-.16.92.92 0 0 0-.02-.19h-4.19c-.26.1-.48.25-.64.45l-.16.48c-.44 1.15-1.6 2.94-3.49 5.35-.37.34-.81.51-1.3.51Z" fill="#666"/></svg>