<svg viewBox="0 0 27 34" fill="none" xmlns="http://www.w3.org/2000/svg"><defs><clipPath id="a"><path fill="#fff" fill-opacity="0" d="M0 0h27v34h-27z"/></clipPath></defs><path d="M0 0h27v34h-27z"/><g clip-path="url(#a)"><path d="m13.64.01-.14-.01-13.5 1.4v24.61l13.5 7.99 13.5-7.99v-24.61l-13.36-1.39Zm11.59 25-11.73 6.94-11.74-6.94v-10.09l11.69 6.92.02 1.25-8.02-4.74-.01 1.23 8.04 4.8.02 1.29-8.04-4.76-.01 1.23 8.05 4.81 8.12-4.84v-5.21l3.62-2.15-.01 10.26Zm0-11.56-3.22 1.88-1.48.87-7.07-4.18-.01 1.22 6.04 3.57-.05.03-.13.08-.86.49-4.99-2.95-.01 1.23 3.94 2.33-.94.61-.02.01-2.97-1.74-.01 1.22 1.95 1.14-1.99 1.18-11.62-6.87 11.64-6.96 11.8 6.84Zm0-1.23-11.79-6.91-11.68 6.9v-9.23l11.74-1.22 11.73 1.22v9.24Z" fill="currentColor"/></g></svg>