<svg viewBox="0 0 24 18.676" fill="none" xmlns="http://www.w3.org/2000/svg"><path d="m15.85 8.79-5.24-3.49a.57.57 0 0 0-.33-.11.57.57 0 0 0-.34.08.64.64 0 0 0-.25.24.75.75 0 0 0-.1.33v6.98a.8.8 0 0 0 .1.34c.06.1.15.19.25.24a.65.65 0 0 0 .67-.03l5.24-3.49a.61.61 0 0 0 .21-.24.65.65 0 0 0-.21-.85Zm-4.95 2.81v-4.54l3.41 2.27-3.41 2.27Zm12.48-8.56a2.41 2.41 0 0 0-1.45-1.64c-3.72-1.43-9.68-1.4-9.93-1.4-.26 0-6.22-.03-9.94 1.4a2.41 2.41 0 0 0-1.45 1.64 25 25 0 0 0-.61 6.29c0 3.27.32 5.23.61 6.3a2.3 2.3 0 0 0 1.45 1.63c3.72 1.43 9.68 1.41 9.94 1.41h.07c.75 0 6.32-.04 9.86-1.41a2.3 2.3 0 0 0 1.45-1.63c.29-1.07.62-3.03.62-6.3 0-3.26-.33-5.22-.62-6.29Zm-1.26 12.26a1.1 1.1 0 0 1-.66.74c-3.49 1.34-9.4 1.32-9.46 1.32-.07 0-5.98.02-9.47-1.32a1.1 1.1 0 0 1-.66-.74c-.26-1-.57-2.85-.57-5.97 0-3.12.31-4.96.57-5.96.04-.17.13-.32.24-.45.11-.13.26-.23.42-.3 3.49-1.34 9.4-1.32 9.47-1.32.06 0 5.97-.02 9.46 1.32.16.07.31.17.42.3.11.13.2.28.24.45.26 1 .57 2.84.57 5.96s-.31 4.97-.57 5.97Z" fill="#666"/></svg>