<svg viewBox="0 0 78 80.033" fill="none" xmlns="http://www.w3.org/2000/svg"><defs><clipPath id="a"><path fill="#fff" fill-opacity="0" d="M0 0h78v80.03h-78z"/></clipPath></defs><path d="M0 0h78v80.03h-78z"/><g clip-path="url(#a)" fill="#FFF"><path d="M64.01 34.72h-49.98a3.18 3.18 0 0 1-3.19-3.16v-9.47a3.18 3.18 0 0 1 3.19-3.16h49.98a3.18 3.18 0 0 1 3.18 3.16v9.47a3.18 3.18 0 0 1-3.18 3.16Zm-49.98-13.37a.75.75 0 0 0-.75.74v9.47c0 .41.34.74.75.74h49.98c.41 0 .74-.33.74-.74v-9.47c0-.4-.34-.74-.74-.74h-49.98Z"/><path d="M57.04 67.17h-36.05a6.11 6.11 0 0 1-6.12-6.09v-27.57c0-.67.55-1.21 1.22-1.21.67 0 1.22.54 1.22 1.21v27.57a3.68 3.68 0 0 0 3.68 3.67h36.05a3.69 3.69 0 0 0 3.69-3.67v-27.57c0-.67.54-1.21 1.21-1.21.68 0 1.22.54 1.22 1.21v27.57a6.1 6.1 0 0 1-6.12 6.09Z"/><path d="M39.02 67.17c-.68 0-1.22-.54-1.22-1.21v-32.45c0-.67.54-1.21 1.22-1.21.67 0 1.22.54 1.22 1.21v32.45c0 .67-.55 1.21-1.22 1.21Zm-15.21-45.82a7.82 7.82 0 1 1 7.49-13.76c5.81 3.13 8.95 11.86 9.08 12.23l-2.3.8c-.03-.08-2.96-8.22-7.94-10.9a5.45 5.45 0 0 0-7.36 2.17 5.38 5.38 0 0 0 2.19 7.32l-1.16 2.14Z"/><path d="m54.23 21.35-1.16-2.14a5.38 5.38 0 0 0-1.04-9.92 5.4 5.4 0 0 0-4.13.43c-4.98 2.68-7.92 10.82-7.95 10.9l-2.3-.8c.13-.37 3.27-9.1 9.09-12.23a7.81 7.81 0 0 1 5.99-.62 7.77 7.77 0 0 1 5.29 9.73 7.8 7.8 0 0 1-3.79 4.65Zm7.71 29.6h-45.85c-.67 0-1.22-.55-1.22-1.21 0-.67.55-1.22 1.22-1.22h45.85a1.22 1.22 0 1 1 0 2.43Z"/></g></svg>