<svg viewBox="0 0 268 112" fill="none" xmlns="http://www.w3.org/2000/svg"><defs><clipPath id="a"><rect rx="-.5" width="267" height="111" transform="translate(.5 .5)" fill="#fff" fill-opacity="0"/></clipPath></defs><rect rx="-.5" width="267" height="111" transform="translate(.5 .5)"/><g clip-path="url(#a)"><path d="M246.23 11.51a30.38 30.38 0 0 1 9-9.2c2-1.4 3.2-1.4 4.4 1.2 1.6 3.8 3 7.8 1.8 12a4.56 4.56 0 0 0 .8 4.2c1.2 1.6 2.2 3.2 3.2 4.6a12.5 12.5 0 0 1 1.8 12.4 10.92 10.92 0 0 0-.4 6.2c.4 1.98.4 4.02 0 6a7.5 7.5 0 0 1-5.4 6.4 10.42 10.42 0 0 0-6.4 4 2 2 0 0 1-.77.73c-.31.18-.67.27-1.03.27-2.4.4-8.4-5-8.4-7.4v-1.2c.2-7.2-.2-7.8-6.8-10.8a8.79 8.79 0 0 1-3.6-2.4c-1.2-1.6-2.8-1.4-4.6-.8-1.8.6-2.8 1.8-2.6 3.8.61 4.84.81 9.72.6 14.6.02.56.15 1.1.4 1.6 6.2 9 8.6 19.6 11.6 29.8 2.4 7.8 6.8 12 14.8 12.6 1.28.1 2.55.3 3.8.6a8.23 8.23 0 0 1 4.38 2.16 8.21 8.21 0 0 1 2.42 4.24c1.4 4.2.6 5.2-3.6 5.2h-13a6.52 6.52 0 0 1-4.6-1.6 23.3 23.3 0 0 0-6.8-4 14.48 14.48 0 0 1-6.8-5.2 57 57 0 0 0-8-9c-5.6-5.8-11.6-11.4-16.8-17.4a22.76 22.76 0 0 1-6.4-15.2c0-1.8-.4-2.6-2.4-1.8-.6.38-1.29.59-2 .6-5.6 0-8.4 3.4-10.4 8.4-1.8 4.2-4.2 8.2-6.4 12.4a20.72 20.72 0 0 0-2 8.4c0 4.8 1.2 6.4 5.6 8 2.8 1 5.4 2 6.8 4.8 1.6 3.2 1.2 4-2.2 4.2h-13.6a3.78 3.78 0 0 1-3.8-2.2l-3.6-6a12.1 12.1 0 0 1-1.4-10.8c.87-3.47.94-7.1.2-10.6a16.86 16.86 0 0 1 3.4-14c1.2-1.4 1.2-2-.8-2.4a100.23 100.23 0 0 1-23.74-8.26.2.2 0 0 1-.06-.14c-6.4-2.4-7.6-2-9.4 4.6-1.6 5.6-3.2 11.2-4.4 17-1.4 6.4.2 12.4 2.2 18.4.8 2.4 3.2 2.2 5 2.8 4 1.2 7.4 2.8 9 7 1.4 3.2 1.2 3.6-2.2 3.6-3.4 0-6.8-.2-10.4 0-3.04.05-6-.93-8.4-2.8-9.6-6.4-12.4-16.2-13.2-26.8-.4-6.6-4-11.8-8.2-16.8-.8-1-1.6-1.4-2.8-.6a88.39 88.39 0 0 1-13.4 6 53.47 53.47 0 0 0-24.4 17.6 21.34 21.34 0 0 0-4.4 10.2c-.6 3.6.4 5.2 4 6.2s5.4 3 5.8 6.8c.2 1.6-.4 2.4-2 2.4h-16.2a3.28 3.28 0 0 1-2.6-1.6c-2.51-3.11-3.86-7-3.8-11-.1-6.91.5-13.81 1.8-20.6a12.68 12.68 0 0 1 6.8-9.6c11.8-5.6 18-16.2 23.6-27.2 1.2-2.2.2-2.6-1.8-2.4-5.6.78-10.9 2.98-15.4 6.4a141.22 141.22 0 0 0-16.6 14.2 33.3 33.3 0 0 1-20.6 9.8c-14.6.8-21.4-7.4-20.8-20.6a19.4 19.4 0 0 1 4.8-12.2 8.45 8.45 0 0 1 9-3c3 .8 3.8 2.4 2.6 5.4-.6 1.2-1.4 2.2-2 3.4a14.84 14.84 0 0 0-2 4c-2.2 6 .8 10.2 7 10.8 6.6.6 12-2.2 17-6.2a89.53 89.53 0 0 0 16-16.6 41.64 41.64 0 0 1 28.8-16.2c4.6-.6 8.6-2.6 13-3.8a83.1 83.1 0 0 1 25.4-3.6 26.1 26.1 0 0 0 11.6-2.2c9.8-4 20-4 30.2-2 8 1.6 16 3.6 23.8 5.6 4.64.86 9.42.73 14-.4a134.92 134.92 0 0 1 26.8-4 36.3 36.3 0 0 1 17.2 3.4c4 1.8 4 1.8 3 5.6Z" fill="#000"/></g></svg>