<svg viewBox="0 0 30 32" fill="none" xmlns="http://www.w3.org/2000/svg"><defs><clipPath id="a"><path fill="#fff" fill-opacity="0" d="M0 0h30v32h-30z"/></clipPath></defs><path d="M0 0h30v32h-30z"/><g clip-path="url(#a)"><path d="M608.43 137.99h24.38v18h-13.13m-7.5 0h-3.75v-14m11.25 14.01-7.5 6v-6" stroke="#FFF" stroke-width="2" stroke-linejoin="round" stroke-linecap="round"/><path d="M27.84 2.76a.95.95 0 0 0-.91-.76h-.01c-4.94.03-16.94.91-21.79 8.38-2.52 3.87-2.74 8.91-.65 14.96.02.05.05.08.08.12-.75 1.97-1.04 3.29-1.05 3.33-.11.54.22 1.07.72 1.18a.7.7 0 0 0 .2.03c.43 0 .82-.33.91-.79.02-.11 2.41-10.38 10.86-16.38.43-.31.55-.93.26-1.39a.9.9 0 0 0-1.3-.28c-4.79 3.41-7.74 8.01-9.48 11.66-1.24-4.58-.91-8.38.99-11.31 3.74-5.76 12.62-7.15 17.98-7.44-1.15 1.8-2.41 5.1-2.41 10.93 0 3.12-.83 5.52-2.46 7.14-2.63 2.59-6.88 2.83-10 2.58-.52-.05-.96.37-1 .92-.04.55.34 1.03.86 1.07.62.05 1.29.09 1.98.09 3.17 0 6.87-.67 9.43-3.2 2.03-2.01 3.07-4.9 3.07-8.6 0-9.1 3.21-11.1 3.23-11.11.39-.21.59-.68.49-1.13Z" fill="#FFF"/></g></svg>