<svg viewBox="0 0 25.983 28.512" fill="none" xmlns="http://www.w3.org/2000/svg"><path d="M10.87 0c-1.63 0-2.9 1.35-2.9 3.08 0 1.72 1.27 3.08 2.9 3.08s2.9-1.36 2.9-3.08c0-1.73-1.27-3.08-2.9-3.08Zm0 1.17c1 0 1.72.85 1.72 1.91 0 .99-.79 1.9-1.72 1.9-1 0-1.72-.84-1.72-1.9 0-1 .78-1.91 1.72-1.91Zm-10.87 23.57c0 1.17.4 2.17 1.35 2.99 1 .85 2.18.78 2.18.78h19.03a3.4 3.4 0 0 0 2.63-1.45c.84-1 .79-2.36.79-2.36v-17.22c0-.43-.11-.6-.75-.6-.63 0-.68.27-.68.59v17.22a2.5 2.5 0 0 1-.75 1.72c-.73.63-1.45.55-1.45.55s-18.12 0-19.03-.03a2.14 2.14 0 0 1-1.45-.91c-.51-.72-.41-1.63-.41-1.63v-17.22c0-.46-.23-.63-.72-.63s-.74.17-.74.58v17.62Zm16.31-16.32c-1.09.24-2.18.38-4.26 2.36-2.09 1.99-3.63 1.9-5.17 1.81-1.54-.09-3.17-1.54-3.44-1.9-.34-.35-.91-.12-1.09.12-.15.23-.15.64.11.99 1.27 1.18 2.45 2.09 4.71 2.27a7.48 7.48 0 0 0 5.89-2.27c1.45-1.45 2.18-1.72 3.27-1.9a6.3 6.3 0 0 1 5.07 1.27c1 1.09 1.27.78 1.54.47.55-.72-.23-1.27-1.09-1.9a7.22 7.22 0 0 0-5.52-1.27l-.02-.05Zm-9.06 7.16c-1.18 0-2.09 1-2.09 2.27s.91 2.26 2.09 2.26c1.17 0 2.08-.99 2.08-2.26 0-1.27-.91-2.27-2.08-2.27Zm11.78.78c-1.54 0-2.81 1.36-2.81 2.99 0 1.63 1.27 2.99 2.81 2.99s2.81-1.36 2.81-2.99c0-1.63-1.27-2.99-2.81-2.99Zm0 1.45c.79 0 1.45.7 1.45 1.54a1.5 1.5 0 0 1-1.45 1.54c-.8 0-1.45-.69-1.45-1.54 0-.86.65-1.54 1.45-1.54Z" fill="#FFF"/></svg>