<svg viewBox="0 0 26.093 31" fill="none" xmlns="http://www.w3.org/2000/svg"><path d="M5.55 0c-1.06 0-1.06 1.58 0 1.58h6.67v1.6a13.21 13.21 0 0 0-12.22 13.3 13.4 13.4 0 0 0 4.51 10.07c.48.42.54 1.17.1 1.63l-1.53 1.56c-.75.68.36 1.75 1.03 1l2.01-2.04c.35-.34.87-.42 1.31-.21a12.85 12.85 0 0 0 11.11.06c.42-.21.96-.12 1.3.22l1.94 1.97c.68.63 1.66-.32 1.04-1l-1.45-1.48c-.45-.46-.38-1.2.11-1.64a13.34 13.34 0 0 0 4.61-10.15c0-7.07-5.43-12.88-12.27-13.29v-1.6h6.67c1.06 0 1.06-1.58 0-1.58h-14.94Zm-4.11 16.47a11.7 11.7 0 0 1 11.6-11.82c6.4 0 11.6 5.29 11.6 11.82 0 6.54-5.2 11.84-11.6 11.84-6.4 0-11.6-5.3-11.6-11.84Zm10.79-8.1c0-1.09 1.66-1.09 1.66 0v8.64c0 .22-.08.44-.24.6a.92.92 0 0 1-.61.24.8.8 0 0 1-.81-.79v-8.69Zm-4.99 2.62a1.15 1.15 0 1 0 0-2.3c-.29.03-.56.16-.75.37-.2.21-.3.49-.3.78 0 .28.1.56.3.77.19.21.46.34.75.37v.01Zm11.59 0c.31 0 .61-.12.83-.33.21-.22.34-.51.34-.82a1.17 1.17 0 0 0-1.17-1.15c-.28.03-.55.16-.75.37-.19.21-.3.49-.3.78 0 .28.11.56.3.77.2.21.47.34.75.37v.01Zm-10.43 12.59c0 1.53-2.32 1.53-2.32 0s2.32-1.53 2.32 0Zm4.64 3.44a1.11 1.11 0 0 0 .89-.29c.12-.11.22-.24.29-.39.06-.14.1-.3.1-.46 0-.16-.04-.32-.1-.47a1.33 1.33 0 0 0-.29-.38 1.14 1.14 0 0 0-.41-.24 1.3 1.3 0 0 0-.48-.06 1.16 1.16 0 0 0-1.05 1.15 1.15 1.15 0 0 0 1.05 1.14Zm-8.12-10.38a1.14 1.14 0 0 1-.68 1.16c-.15.07-.31.1-.47.1-.17 0-.33-.03-.47-.1a1 1 0 0 1-.39-.28c-.11-.12-.2-.26-.25-.41a1.15 1.15 0 0 1 1.11-1.51c.29 0 .56.11.78.3.21.19.35.45.37.74Zm17.39 1.15c.16.01.33 0 .48-.05a1.24 1.24 0 0 0 .7-.63c.06-.15.1-.31.1-.47 0-.16-.04-.31-.1-.46a1.24 1.24 0 0 0-.7-.63c-.15-.05-.32-.07-.48-.05a1.2 1.2 0 0 0-.75.37c-.19.21-.3.49-.3.77 0 .29.11.57.3.78.2.21.46.34.75.37Zm-2.31 5.8c0 1.52-2.33 1.52-2.33-.01s2.33-1.53 2.33 0v.01Z" fill="#FFF"/></svg>