<svg viewBox="0 0 25 30" fill="none" xmlns="http://www.w3.org/2000/svg"><path d="M0 0h25v30h-25z"/><path d="M18.61.07a1 1 0 0 1 1.09.22c.91.91 2.1 2.88 3.06 5.92a42.6 42.6 0 0 1 1.74 12.79 1 1 0 0 1-1 1h-3.5v9a1 1 0 0 1-1 1 1 1 0 0 1-1-1v-28a1 1 0 0 1 .61-.93Zm1.39 17.93h2.49a39.57 39.57 0 0 0-1.64-11.19c-.27-.88-.57-1.64-.85-2.3v13.49Zm-18.5-18a1 1 0 0 1 1 1v5.5a2.93 2.93 0 0 0 2.5 2.9v-8.4c0-.56.44-1 1-1a1 1 0 0 1 1 1v8.4a2.93 2.93 0 0 0 2.5-2.9v-5.5c0-.56.44-1 1-1a1 1 0 0 1 1 1v5.5c0 .94-.31 2.18-1.18 3.2a5.08 5.08 0 0 1-3.32 1.73v17.57a1 1 0 0 1-1 1 1 1 0 0 1-1-1v-17.57a5.08 5.08 0 0 1-3.33-1.73 5.02 5.02 0 0 1-1.17-3.2v-5.5c0-.56.44-1 1-1Z" fill="#FFF" fill-rule="evenodd"/></svg>