<svg viewBox="0 0 67 28" fill="none" xmlns="http://www.w3.org/2000/svg"><defs><clipPath id="a"><path fill="#fff" fill-opacity="0" d="M0 0h67v28h-67z"/></clipPath></defs><path d="M0 0h67v28h-67z"/><g clip-path="url(#a)"><path d="M60.55 2.87a7.71 7.71 0 0 1 2.25-2.3c.5-.35.8-.35 1.1.3.4.95.75 1.95.45 3-.05.18-.06.37-.03.55.04.19.12.36.23.5.3.4.55.8.8 1.15a3.1 3.1 0 0 1 .45 3.1c-.18.5-.21 1.04-.1 1.55.1.5.1 1.01 0 1.5a1.88 1.88 0 0 1-1.35 1.6c-.64.13-1.21.48-1.6 1a.5.5 0 0 1-.19.19.58.58 0 0 1-.26.06c-.6.1-2.1-1.25-2.1-1.85v-.3c.05-1.8-.05-1.95-1.7-2.7a2.16 2.16 0 0 1-.9-.6c-.3-.4-.7-.35-1.15-.2-.45.15-.7.45-.65.95.15 1.21.21 2.43.15 3.65.01.14.04.28.1.4 1.55 2.25 2.15 4.9 2.9 7.45.6 1.95 1.7 3 3.7 3.15.32.03.64.08.95.15.41.07.8.26 1.1.54.3.29.51.66.6 1.06.35 1.05.15 1.3-.9 1.3h-3.25c-.42.02-.83-.12-1.15-.4a6.04 6.04 0 0 0-1.7-1 3.63 3.63 0 0 1-1.7-1.3 14.2 14.2 0 0 0-2-2.25c-1.4-1.45-2.9-2.85-4.2-4.35a5.67 5.67 0 0 1-1.6-3.8c0-.45-.1-.65-.6-.45a.89.89 0 0 1-.5.15c-1.4 0-2.1.85-2.6 2.1-.45 1.05-1.05 2.05-1.6 3.1a5.3 5.3 0 0 0-.5 2.1c0 1.2.3 1.6 1.4 2 .7.25 1.35.5 1.7 1.2.4.8.3 1-.55 1.05h-3.4a.92.92 0 0 1-.56-.12.96.96 0 0 1-.39-.43l-.9-1.5a3.08 3.08 0 0 1-.35-2.7c.22-.86.24-1.77.05-2.65a4.23 4.23 0 0 1 .85-3.5c.3-.35.3-.5-.2-.6a24.88 24.88 0 0 1-5.9-2.05l-.03-.01-.02-.04c-1.6-.6-1.9-.5-2.35 1.15-.4 1.4-.8 2.8-1.1 4.25-.35 1.6.05 3.1.55 4.6.2.6.8.55 1.25.7 1 .3 1.85.7 2.25 1.75.35.8.3.9-.55.9-.85 0-1.7-.05-2.6 0-.76.02-1.5-.23-2.1-.7-2.4-1.6-3.1-4.05-3.3-6.7-.1-1.65-1-2.95-2.05-4.2-.2-.25-.4-.35-.7-.15-1.07.6-2.19 1.1-3.35 1.5a13.43 13.43 0 0 0-6.1 4.4 5.45 5.45 0 0 0-1.1 2.55c-.15.9.1 1.3 1 1.55s1.35.75 1.45 1.7c.05.4-.1.6-.5.6h-4.05a.83.83 0 0 1-.65-.4 4.33 4.33 0 0 1-.95-2.75c-.02-1.72.13-3.45.45-5.15a3.2 3.2 0 0 1 1.7-2.4c2.95-1.4 4.5-4.05 5.9-6.8.3-.55.05-.65-.45-.6-1.4.2-2.72.75-3.85 1.6a36 36 0 0 0-4.15 3.55 8.25 8.25 0 0 1-5.15 2.45c-3.65.2-5.35-1.85-5.2-5.15.04-1.12.46-2.2 1.2-3.05.26-.33.61-.58 1.01-.71a2.1 2.1 0 0 1 1.24-.04c.75.2.95.6.65 1.35-.15.3-.35.55-.5.85-.21.31-.38.65-.5 1-.55 1.5.2 2.55 1.75 2.7 1.65.15 3-.55 4.25-1.55 1.51-1.2 2.85-2.6 4-4.15a10.56 10.56 0 0 1 3.18-2.77 10.59 10.59 0 0 1 4.02-1.28c1.15-.15 2.15-.65 3.25-.95 2.06-.62 4.2-.93 6.35-.9 1 .04 1.99-.14 2.9-.55 2.45-1 5-1 7.55-.5 2 .4 4 .9 5.95 1.4a8.1 8.1 0 0 0 3.5-.1c2.2-.55 4.44-.89 6.7-1a9.08 9.08 0 0 1 4.3.85c1 .45 1 .45.75 1.4Z" fill="#000"/></g></svg>