<svg viewBox="0 0 118 21" fill="none" xmlns="http://www.w3.org/2000/svg"><path d="M1.42 19.21a7.9 7.9 0 0 1-1.4-5.06v-7.31a8.02 8.02 0 0 1 1.38-5.11c.93-1.16 2.51-1.74 4.76-1.73 2.24 0 3.76.51 4.56 1.53a6.4 6.4 0 0 1 1.33 4.37v1.72h-4.15v-1.86c0-.49-.05-.98-.13-1.47a1.57 1.57 0 0 0-.47-.92 1.57 1.57 0 0 0-.54-.29c-.2-.07-.41-.09-.61-.07a1.48 1.48 0 0 0-1.51.73 5.37 5.37 0 0 0-.34 2.14v9.28c-.04.74.09 1.47.39 2.15.15.24.36.44.62.57.26.12.55.17.84.14a1.37 1.37 0 0 0 1.4-.72c.24-.69.35-1.41.31-2.14v-1.94h4.15v1.68a6.95 6.95 0 0 1-1.23 4.5c-.88 1.07-2.41 1.6-4.57 1.6-2.17 0-3.86-.59-4.79-1.79Zm16.28-18.93h4.75l4.01 20.47h-3.95l-.71-4.52h-3.33l-.8 4.49h-4.01l4.04-20.44Zm3.66 13.37-1.26-8.22-1.26 8.22h2.52Zm8.18-10.29h-3.25v-3.08h10.74v3.08h-3.21v17.36h-4.29l.01-17.36Z" fill="#111"/><path d="M45.46.28h8.14v2.12h-5.21v6.76h4.23v2.02h-4.23v7.49h5.26v2.05h-8.19v-20.44Zm10.56 0h2l6.02 13.58v-13.58h2.44v20.47h-1.87l-6.02-13.96v13.93h-2.48l-.09-20.44Zm13.7 0h8.13v2.12h-5.21v6.76h4.27v2.02h-4.23v7.49h5.23v2.05h-8.19v-20.44Zm10.55 0h4.23a7.2 7.2 0 0 1 4.68 1.27c1 .85 1.49 2.24 1.49 4.16 0 2.6-.87 4.19-2.6 4.77l3.01 10.24h-2.85l-2.75-9.59h-2.28v9.59h-2.93v-20.44Zm4.01 8.77c.96.09 1.93-.17 2.7-.74.32-.36.55-.78.69-1.24.15-.45.19-.93.13-1.4a5.4 5.4 0 0 0-.29-1.95 1.8 1.8 0 0 0-1-1.05 4.79 4.79 0 0 0-2.05-.34h-1.3v6.76l1.12-.04Zm10.34 10.16a8.78 8.78 0 0 1-1.27-5.21v-6.83c-.04-1.32.13-2.63.5-3.9a4.4 4.4 0 0 1 1.74-2.35 6.1 6.1 0 0 1 3.37-.82 5.43 5.43 0 0 1 4.19 1.45 6.7 6.7 0 0 1 1.28 4.51v.76h-2.76v-.63c.02-.76-.04-1.52-.18-2.27-.09-.47-.36-.9-.76-1.2a3.12 3.12 0 0 0-1.72-.39 2.57 2.57 0 0 0-1.82.54c-.41.38-.68.89-.77 1.44-.13.81-.18 1.62-.17 2.43v7.6a7.1 7.1 0 0 0 .59 3.37 2.84 2.84 0 0 0 2.26 1.02c.44-.01.86-.11 1.25-.3.38-.2.71-.47.97-.81.48-1.12.69-2.34.61-3.56v-1.44h-2.66v-2.02h5.31v10.12h-1.82l-.29-2.35a3.6 3.6 0 0 1-1.4 1.94c-.68.47-1.5.71-2.33.67a4.65 4.65 0 0 1-4.12-1.77Zm16.05-5.7-4.54-13.23h2.73l3.21 9.86 3.17-9.86h2.76l-4.51 13.23v7.21h-2.81l-.01-7.21Z" fill="#444"/></svg>